<svg version="1.2" baseProfile="tiny" xmlns="http://www.w3.org/2000/svg" xmlns:xlink="http://www.w3.org/1999/xlink" x="0px" y="0px" width="235px" height="40.248px" viewBox="0 0 2200.804 376.934" style="background-color: #000000;" xml:space="preserve">
						<g>
							<g>
								<g>
									<polygon fill="#E0BCB0" points="265.715,61.48 265.677,61.48 265.66,61.461 265.621,61.48 257.854,61.467 257.331,364.137 265.192,364.15 265.694,73.576 481.538,364.451 490.628,364.467 265.715,61.534"></polygon>
									<polygon fill="#E0BCB0" points="594.524,10.854 594.524,10.849 585.063,10.837 425.96,225 267.559,10.153 257.943,10.136 520.943,364.661 528.943,364.675 430.836,231.611 586.644,21.768 586.052,364.734 593.914,364.747 594.524,11.154 594.747,10.854"></polygon>
									<path fill="#E0BCB0" d="M213.642,208.682c-7.126-7.326-16.417-13.969-26.774-18.277c-8.251-3.43-21.016-6.587-33.936-8.125 c10.373-2.164,19.813-7.037,28.314-12.403c8.499-5.364,15.724-11.824,21.678-19.378c5.949-7.555,10.585-15.907,13.909-25.066 c3.317-9.156,4.989-16.71,5.005-26.63c0.049-28.406-8.331-50.358-25.137-65.853c-16.808-15.494-42.496-23.273-77.064-23.333 L0.612,9.402L0,363.801l7.165,0.013L7.766,15.765l22.406,0.039L29.57,363.981l101.403,0.175 c16.532,0.028,31.263-2.047,44.198-6.227c12.932-4.179,23.877-10.298,32.834-18.35c8.955-8.054,15.775-17.916,20.455-29.593 c4.677-11.673,7.032-25.075,7.058-40.207c0.022-12.267-2.106-24.993-5.575-35.098 C226.198,223.767,220.766,216.004,213.642,208.682z M37.285,15.827l80.86,0.14c32.618,0.056,58.683,7.061,74.489,21.002 c15.799,13.945,22.674,33.887,22.629,59.83c-0.017,9.449-1.764,20.73-5.235,30.429c-3.473,9.702-9.878,18.454-17.521,26.255 c-7.648,7.81-17.463,14.572-29.442,19.45c-11.979,4.875-26.482,6.275-43.515,6.246l-82.546-0.142L37.285,15.827z  M203.957,334.156c-16.922,14.898-42.107,22.954-73.654,22.899l-93.322-0.161l0.294-170.037l90.51,0.156 c15.049,0.026,33.711,1.651,45.883,5.271c14.015,4.167,21.748,8.306,30.144,15.562c8.396,7.26,15.688,15.953,19.925,26.334 c4.337,10.623,5.7,21.824,5.677,34.717C229.367,296.116,220.878,319.264,203.957,334.156z"></path>
									<polygon fill="#E0BCB0" points="796.637,210.04 623.641,209.741 623.679,187.938 796.675,188.237 796.688,180.871 623.691,180.573 623.972,18.147 796.968,18.445 796.98,11.078 616.439,10.612 615.828,364.824 623.373,364.838 623.628,217.107 796.624,217.406"></polygon>
								</g>
								<path fill="#E0BCB0" d="M937.116,361.008c22.023,9.381,46.655,14.161,73.218,14.207c23.584,0.041,47.106-4.383,69.908-13.148 c23.106-8.893,42.55-22.644,57.795-40.87l4.628-5.537l-18.881-17.772l-5.201,6.293c-12.596,15.247-28.816,26.846-48.209,34.478 c-19.712,7.751-39.9,11.664-59.997,11.629c-23.528-0.04-45.067-4.313-64.023-12.694c-18.977-8.388-35.431-20.031-48.892-34.606 c-13.5-14.613-24.031-31.992-31.311-51.658c-7.309-19.736-10.994-41.264-10.955-63.986c0.039-22.708,3.873-44.208,11.399-63.907 c7.502-19.653,18.183-37.008,31.744-51.589c13.511-14.521,30.005-26.11,49.016-34.442c19-8.317,40.394-12.514,63.584-12.474 c8.509,0.015,17.47,0.804,26.634,2.347c9.1,1.538,18.257,4.017,27.204,7.363c8.956,3.371,17.557,7.611,25.554,12.601 c7.918,4.958,15.097,10.797,21.342,17.358l5.773,6.064l16.882-19.239l-4.828-5.067c-14.854-15.579-33.062-27.342-54.117-34.96 c-20.781-7.524-42.45-11.357-64.4-11.396c-26.224-0.045-50.787,4.648-73.007,13.947c-22.205,9.31-41.612,22.404-57.687,38.916 c-16.075,16.519-28.724,36.549-37.596,59.537c-8.837,22.891-13.34,48.089-13.386,74.896c-0.046,26.802,4.369,52.015,13.127,74.94 c8.793,23.016,21.372,43.089,37.39,59.667C895.846,338.478,915.123,351.636,937.116,361.008z"></path>
								<polygon fill="#E0BCB0" points="1367.477,341.274 1198.106,340.982 1198.677,9.946 1172.792,9.901 1172.177,365.866 1367.434,366.203"></polygon>
								<rect x="1398.099" y="10.317" transform="matrix(-1 -0.0017 0.0017 -1 2821.7671 378.994)" fill="#E0BCB0" width="25.891" height="355.965"></rect>
								<rect x="1768.089" y="10.961" transform="matrix(-1 -0.0017 0.0017 -1 3561.7451 380.9097)" fill="#E0BCB0" width="25.89" height="355.964"></rect>
								<path fill="#E0BCB0" d="M1931.952,362.726c22.018,9.382,46.65,14.162,73.213,14.208c23.59,0.04,47.11-4.383,69.903-13.148 c23.105-8.89,42.549-22.642,57.8-40.87l4.628-5.537l-18.881-17.771l-5.202,6.29c-12.601,15.25-28.821,26.85-48.198,34.479 c-19.716,7.75-39.905,11.663-60.007,11.628c-23.534-0.04-45.072-4.312-64.02-12.694c-18.971-8.379-35.42-20.022-48.896-34.608 c-13.49-14.6-24.021-31.979-31.306-51.653c-7.314-19.751-10.998-41.281-10.959-63.988c0.04-22.722,3.878-44.222,11.404-63.907 c7.502-19.652,18.183-37.009,31.748-51.589c13.501-14.521,29.991-26.11,49.007-34.441c19-8.317,40.394-12.514,63.584-12.474 c8.504,0.015,17.47,0.804,26.639,2.347c9.089,1.536,18.247,4.014,27.197,7.362c8.963,3.371,17.563,7.611,25.556,12.604 c7.922,4.956,15.101,10.795,21.343,17.354l5.768,6.065l16.896-19.238l-4.834-5.067c-14.858-15.581-33.066-27.344-54.121-34.961 c-20.776-7.523-42.445-11.357-64.4-11.396c-26.225-0.045-50.782,4.648-73.003,13.948c-22.204,9.31-41.611,22.404-57.687,38.916 c-16.08,16.527-28.733,36.559-37.596,59.535c-8.838,22.889-13.346,48.088-13.392,74.898c-0.046,26.807,4.374,52.02,13.132,74.939 c8.783,23.006,21.368,43.083,37.391,59.667C1890.682,340.196,1909.958,353.354,1931.952,362.726z"></path>
								<polygon fill="#E0BCB0" points="1737.843,366.673 1738.458,10.71 1712.568,10.666 1712.026,323.991 1477.69,10.26 1446.3,10.206 1710.957,366.626"></polygon>
								<polygon fill="#E0BCB0" points="1453.013,366.181 1478.899,366.225 1479.328,117.768 1479.44,110.344 1453.513,76.604"></polygon>
							</g>
							<g>
								<path id="trademark" fill="#FFFFFF" d="M2144.073,7.604h-10.078V2.489h25.268v5.115h-10.075V34.42h-5.114V7.604z M2165.696,2.489h8.137 l9.533,24.259l9.533-24.259h7.905V34.42h-5.114V7.604h-0.156l-10.54,26.816h-3.488l-10.539-26.816h-0.155V34.42h-5.115V2.489z"></path>
							</g>
						</g>
					</svg>